# xmcd
#
# Track frame offsets: 
#        150
#        19455
#        42328
#        79334
#        98632
#
# Disc length: 1570 seconds
#
# Revision: 0
# Processed by: cddbd v1.5.2PL0 Copyright (c) Steve Scherf et al.
# Submitted via: ExactAudioCopyFreeDBPlugin 1.0
#
DISCID=38062005
DTITLE=Snoop Doggy Dogg - What's My Name? (Single)
DYEAR=1993
DGENRE=Rap
TTITLE0=What's My Name? (Clean Radio Mix)
TTITLE1=What's My Name? (Clean Club Mix)
TTITLE2=What's My Name? (Explicit Club Mix)
TTITLE3=What's My Name? (LP Version)
TTITLE4=What's My Name? (Instrumental)
EXTD=
EXTT0=
EXTT1=
EXTT2=
EXTT3=
EXTT4=
PLAYORDER=
